# Blender v2.79 (sub 0) OBJ File: ''
# www.blender.org
mtllib Door Left.mtl
o SketchUp.107_ID499
v 0.105344 0.277410 -1.841431
v 0.132690 0.277410 -1.841431
l 2 1
o SketchUp.106_ID495
v 0.105344 0.964910 -1.021253
v 0.132690 0.964910 -1.021253
l 4 3
o SketchUp.105_ID491
v 0.105344 1.785090 -1.021253
v 0.132690 1.785090 -1.021253
l 6 5
o SketchUp.104_ID485
v 0.105344 2.472590 -1.841431
v 0.132690 2.472590 -1.841431
l 8 7
o SketchUp.001_ID11
v 0.105344 2.760000 -1.841431
v 0.092896 2.472590 -1.841431
v 0.105344 2.472590 -1.841431
v 0.092896 2.760000 -1.841431
v 0.092896 2.760000 -1.841431
v 0.105344 2.760000 -1.841431
v 0.092896 2.472590 -1.841431
v 0.105344 2.472590 -1.841431
v 0.092896 1.785090 -1.021253
v 0.105344 2.472590 -1.841431
v 0.092896 2.472590 -1.841431
v 0.105344 1.785090 -1.021253
v 0.105344 1.785090 -1.021253
v 0.092896 1.785090 -1.021253
v 0.105344 2.472590 -1.841431
v 0.092896 2.472590 -1.841431
v 0.105344 1.796516 -0.976765
v 0.105344 1.785090 -1.021253
v 0.105344 0.953484 -0.976765
v 0.105344 2.484016 -1.796946
v 0.105344 2.472590 -1.841431
v 0.105344 2.760000 -1.796946
v 0.105344 2.760000 -1.841431
v 0.105344 0.964910 -1.021253
v 0.105344 0.265984 -1.796946
v 0.105344 0.277410 -1.841431
v 0.105344 -0.000000 -1.796946
v 0.105344 -0.000000 -1.841431
v 0.105344 -0.000000 -1.841431
v 0.105344 0.277410 -1.841431
v 0.105344 -0.000000 -1.796946
v 0.105344 0.265984 -1.796946
v 0.105344 0.964910 -1.021253
v 0.105344 1.785090 -1.021253
v 0.105344 0.953484 -0.976765
v 0.105344 2.760000 -1.841431
v 0.105344 2.760000 -1.796946
v 0.105344 2.472590 -1.841431
v 0.105344 2.484016 -1.796946
v 0.105344 1.796516 -0.976765
v 0.132690 2.760000 -1.796946
v 0.132690 2.760000 -1.841431
v 0.105344 2.760000 -1.796946
v 0.105344 2.760000 -1.841431
v 0.092896 2.760000 -2.227689
v 0.092896 2.760000 -1.841431
v 0.142690 2.760000 -2.227689
v 0.142690 2.760000 -1.841431
v 0.142690 2.760000 -1.841431
v 0.132690 2.760000 -1.841431
v 0.142690 2.760000 -2.227689
v 0.105344 2.760000 -1.796946
v 0.105344 2.760000 -1.841431
v 0.092896 2.760000 -2.227689
v 0.092896 2.760000 -1.841431
v 0.132690 2.760000 -1.796946
v 0.092896 1.785090 -1.021253
v 0.092896 1.605000 -1.367691
v 0.092896 0.964910 -1.021253
v 0.092896 2.472590 -1.841431
v 0.092896 1.625000 -1.387691
v 0.092896 1.625000 -2.227689
v 0.092896 2.760000 -1.841431
v 0.092896 2.760000 -2.227689
v 0.092896 1.155000 -1.367691
v 0.092896 0.277410 -1.841431
v 0.092896 1.135000 -1.387691
v 0.092896 1.135000 -2.227689
v 0.092896 -0.000000 -1.841431
v 0.092896 -0.000000 -2.227689
v 0.092896 -0.000000 -2.227689
v 0.092896 1.135000 -2.227689
v 0.092896 -0.000000 -1.841431
v 0.092896 0.277410 -1.841431
v 0.092896 1.135000 -1.387691
v 0.092896 1.155000 -1.367691
v 0.092896 1.605000 -1.367691
v 0.092896 0.964910 -1.021253
v 0.092896 2.760000 -2.227689
v 0.092896 2.760000 -1.841431
v 0.092896 1.625000 -2.227689
v 0.092896 2.472590 -1.841431
v 0.092896 1.625000 -1.387691
v 0.092896 1.785090 -1.021253
v 0.105344 1.785090 -1.021253
v 0.092896 0.964910 -1.021253
v 0.105344 0.964910 -1.021253
v 0.092896 1.785090 -1.021253
v 0.092896 1.785090 -1.021253
v 0.105344 1.785090 -1.021253
v 0.092896 0.964910 -1.021253
v 0.105344 0.964910 -1.021253
v 0.132690 1.796516 -0.976765
v 0.105344 0.953484 -0.976765
v 0.132690 0.953484 -0.976765
v 0.105344 1.796516 -0.976765
v 0.105344 1.796516 -0.976765
v 0.132690 1.796516 -0.976765
v 0.105344 0.953484 -0.976765
v 0.132690 0.953484 -0.976765
v 0.105344 1.796516 -0.976765
v 0.132690 2.484016 -1.796946
v 0.105344 2.484016 -1.796946
v 0.132690 1.796516 -0.976765
v 0.132690 1.796516 -0.976765
v 0.105344 1.796516 -0.976765
v 0.132690 2.484016 -1.796946
v 0.105344 2.484016 -1.796946
v 0.132690 2.760000 -1.796946
v 0.105344 2.484016 -1.796946
v 0.132690 2.484016 -1.796946
v 0.105344 2.760000 -1.796946
v 0.105344 2.760000 -1.796946
v 0.132690 2.760000 -1.796946
v 0.105344 2.484016 -1.796946
v 0.132690 2.484016 -1.796946
v 0.105344 0.277410 -1.841431
v 0.092896 0.964910 -1.021253
v 0.092896 0.277410 -1.841431
v 0.105344 0.964910 -1.021253
v 0.105344 0.964910 -1.021253
v 0.105344 0.277410 -1.841431
v 0.092896 0.964910 -1.021253
v 0.092896 0.277410 -1.841431
v 0.105344 0.277410 -1.841431
v 0.092896 -0.000000 -1.841431
v 0.105344 -0.000000 -1.841431
v 0.092896 0.277410 -1.841431
v 0.092896 0.277410 -1.841431
v 0.105344 0.277410 -1.841431
v 0.092896 -0.000000 -1.841431
v 0.105344 -0.000000 -1.841431
v 0.092896 -0.000000 -2.227689
v 0.105344 -0.000000 -1.841431
v 0.092896 -0.000000 -1.841431
v 0.142690 0.000000 -2.227689
v 0.105344 -0.000000 -1.796946
v 0.132690 -0.000000 -1.841431
v 0.142690 0.000000 -1.841431
v 0.132690 -0.000000 -1.796946
v 0.132690 -0.000000 -1.841431
v 0.105344 -0.000000 -1.796946
v 0.132690 -0.000000 -1.796946
v 0.142690 0.000000 -1.841431
v 0.142690 0.000000 -2.227689
v 0.105344 -0.000000 -1.841431
v 0.092896 -0.000000 -2.227689
v 0.092896 -0.000000 -1.841431
v 0.132690 -0.000000 -1.796946
v 0.105344 0.265984 -1.796946
v 0.105344 -0.000000 -1.796946
v 0.132690 0.265984 -1.796946
v 0.132690 0.265984 -1.796946
v 0.132690 -0.000000 -1.796946
v 0.105344 0.265984 -1.796946
v 0.105344 -0.000000 -1.796946
v 0.132690 0.265984 -1.796946
v 0.105344 0.953484 -0.976765
v 0.105344 0.265984 -1.796946
v 0.132690 0.953484 -0.976765
v 0.132690 0.953484 -0.976765
v 0.132690 0.265984 -1.796946
v 0.105344 0.953484 -0.976765
v 0.105344 0.265984 -1.796946
v 0.142690 0.000000 -2.227689
v 0.142690 0.277410 -1.841431
v 0.142690 0.000000 -1.841431
v 0.142690 1.785090 -1.021253
v 0.142690 0.964910 -1.021253
v 0.142690 1.155000 -1.367691
v 0.142690 1.135000 -1.387691
v 0.142690 1.135000 -2.227689
v 0.142690 1.605000 -1.367691
v 0.142690 2.472590 -1.841431
v 0.142690 1.625000 -1.387691
v 0.142690 1.625000 -2.227689
v 0.142690 2.760000 -1.841431
v 0.142690 2.760000 -2.227689
v 0.142690 2.760000 -2.227689
v 0.142690 1.625000 -2.227689
v 0.142690 2.760000 -1.841431
v 0.142690 2.472590 -1.841431
v 0.142690 1.625000 -1.387691
v 0.142690 1.605000 -1.367691
v 0.142690 1.155000 -1.367691
v 0.142690 1.785090 -1.021253
v 0.142690 0.000000 -2.227689
v 0.142690 0.277410 -1.841431
v 0.142690 1.135000 -2.227689
v 0.142690 1.135000 -1.387691
v 0.142690 0.964910 -1.021253
v 0.142690 0.000000 -1.841431
v 0.092896 2.760000 -2.227689
v 0.142690 1.625000 -2.227689
v 0.092896 1.625000 -2.227689
v 0.142690 2.760000 -2.227689
v 0.142690 2.760000 -2.227689
v 0.092896 2.760000 -2.227689
v 0.142690 1.625000 -2.227689
v 0.092896 1.625000 -2.227689
v 0.132690 -0.000000 -1.841431
v 0.132690 0.265984 -1.796946
v 0.132690 -0.000000 -1.796946
v 0.132690 0.953484 -0.976765
v 0.132690 0.964910 -1.021253
v 0.132690 1.796516 -0.976765
v 0.132690 0.277410 -1.841431
v 0.132690 1.785090 -1.021253
v 0.132690 2.484016 -1.796946
v 0.132690 2.472590 -1.841431
v 0.132690 2.760000 -1.796946
v 0.132690 2.760000 -1.841431
v 0.132690 2.760000 -1.841431
v 0.132690 2.472590 -1.841431
v 0.132690 2.760000 -1.796946
v 0.132690 2.484016 -1.796946
v 0.132690 1.785090 -1.021253
v 0.132690 0.964910 -1.021253
v 0.132690 1.796516 -0.976765
v 0.132690 -0.000000 -1.841431
v 0.132690 0.265984 -1.796946
v 0.132690 0.277410 -1.841431
v 0.132690 0.953484 -0.976765
v 0.132690 -0.000000 -1.796946
v 0.142690 2.760000 -1.841431
v 0.132690 2.472590 -1.841431
v 0.142690 2.472590 -1.841431
v 0.132690 2.760000 -1.841431
v 0.132690 2.760000 -1.841431
v 0.142690 2.760000 -1.841431
v 0.132690 2.472590 -1.841431
v 0.142690 2.472590 -1.841431
v 0.092896 1.135000 -2.227689
v 0.142690 0.000000 -2.227689
v 0.092896 -0.000000 -2.227689
v 0.142690 1.135000 -2.227689
v 0.142690 1.135000 -2.227689
v 0.092896 1.135000 -2.227689
v 0.142690 0.000000 -2.227689
v 0.092896 -0.000000 -2.227689
v 0.092896 1.625000 -2.227689
v 0.072896 1.605000 -1.407990
v 0.072896 1.605000 -2.227689
v 0.092896 1.625000 -1.387691
v 0.092896 1.625000 -1.387691
v 0.092896 1.625000 -2.227689
v 0.072896 1.605000 -1.407990
v 0.072896 1.605000 -2.227689
v 0.072896 1.584699 -1.387691
v 0.092896 1.625000 -1.387691
v 0.092896 1.605000 -1.367691
v 0.072896 1.605000 -1.407990
v 0.072896 1.605000 -1.407990
v 0.072896 1.584699 -1.387691
v 0.092896 1.625000 -1.387691
v 0.092896 1.605000 -1.367691
v 0.072896 1.175301 -1.387691
v 0.092896 1.605000 -1.367691
v 0.092896 1.155000 -1.367691
v 0.072896 1.584699 -1.387691
v 0.072896 1.584699 -1.387691
v 0.072896 1.175301 -1.387691
v 0.092896 1.605000 -1.367691
v 0.092896 1.155000 -1.367691
v 0.092896 1.135000 -1.387691
v 0.072896 1.175301 -1.387691
v 0.092896 1.155000 -1.367691
v 0.072896 1.155000 -1.407990
v 0.072896 1.155000 -1.407990
v 0.092896 1.135000 -1.387691
v 0.072896 1.175301 -1.387691
v 0.092896 1.155000 -1.367691
v 0.092896 1.135000 -1.387691
v 0.072896 1.155000 -2.227689
v 0.072896 1.155000 -1.407990
v 0.092896 1.135000 -2.227689
v 0.092896 1.135000 -2.227689
v 0.092896 1.135000 -1.387691
v 0.072896 1.155000 -2.227689
v 0.072896 1.155000 -1.407990
v 0.142690 0.000000 -1.841431
v 0.132690 0.277410 -1.841431
v 0.132690 -0.000000 -1.841431
v 0.142690 0.277410 -1.841431
v 0.142690 0.277410 -1.841431
v 0.142690 0.000000 -1.841431
v 0.132690 0.277410 -1.841431
v 0.132690 -0.000000 -1.841431
v 0.132690 1.785090 -1.021253
v 0.142690 2.472590 -1.841431
v 0.132690 2.472590 -1.841431
v 0.142690 1.785090 -1.021253
v 0.142690 1.785090 -1.021253
v 0.132690 1.785090 -1.021253
v 0.142690 2.472590 -1.841431
v 0.132690 2.472590 -1.841431
v 0.142690 1.785090 -1.021253
v 0.132690 0.964910 -1.021253
v 0.142690 0.964910 -1.021253
v 0.132690 1.785090 -1.021253
v 0.132690 1.785090 -1.021253
v 0.142690 1.785090 -1.021253
v 0.132690 0.964910 -1.021253
v 0.142690 0.964910 -1.021253
v 0.142690 0.277410 -1.841431
v 0.132690 0.964910 -1.021253
v 0.132690 0.277410 -1.841431
v 0.142690 0.964910 -1.021253
v 0.142690 0.964910 -1.021253
v 0.142690 0.277410 -1.841431
v 0.132690 0.964910 -1.021253
v 0.132690 0.277410 -1.841431
v 0.162690 1.155000 -1.407990
v 0.142690 1.135000 -2.227689
v 0.142690 1.135000 -1.387691
v 0.162690 1.155000 -2.227689
v 0.162690 1.155000 -2.227689
v 0.162690 1.155000 -1.407990
v 0.142690 1.135000 -2.227689
v 0.142690 1.135000 -1.387691
v 0.162690 1.175301 -1.387691
v 0.142690 1.135000 -1.387691
v 0.142690 1.155000 -1.367691
v 0.162690 1.155000 -1.407990
v 0.162690 1.155000 -1.407990
v 0.162690 1.175301 -1.387691
v 0.142690 1.135000 -1.387691
v 0.142690 1.155000 -1.367691
v 0.142690 1.605000 -1.367691
v 0.162690 1.175301 -1.387691
v 0.142690 1.155000 -1.367691
v 0.162690 1.584699 -1.387691
v 0.162690 1.584699 -1.387691
v 0.142690 1.605000 -1.367691
v 0.162690 1.175301 -1.387691
v 0.142690 1.155000 -1.367691
v 0.142690 1.625000 -1.387691
v 0.162690 1.584699 -1.387691
v 0.142690 1.605000 -1.367691
v 0.162690 1.605000 -1.407990
v 0.162690 1.605000 -1.407990
v 0.142690 1.625000 -1.387691
v 0.162690 1.584699 -1.387691
v 0.142690 1.605000 -1.367691
v 0.162690 1.605000 -2.227689
v 0.142690 1.625000 -1.387691
v 0.142690 1.625000 -2.227689
v 0.162690 1.605000 -1.407990
v 0.162690 1.605000 -1.407990
v 0.162690 1.605000 -2.227689
v 0.142690 1.625000 -1.387691
v 0.142690 1.625000 -2.227689
v 0.072896 1.155000 -2.227689
v 0.142690 1.135000 -2.227689
v 0.092896 1.135000 -2.227689
v 0.162690 1.155000 -2.227689
v 0.072896 1.605000 -2.227689
v 0.162690 1.605000 -2.227689
v 0.142690 1.625000 -2.227689
v 0.092896 1.625000 -2.227689
v 0.092896 1.625000 -2.227689
v 0.072896 1.605000 -2.227689
v 0.142690 1.625000 -2.227689
v 0.162690 1.605000 -2.227689
v 0.162690 1.155000 -2.227689
v 0.072896 1.155000 -2.227689
v 0.142690 1.135000 -2.227689
v 0.092896 1.135000 -2.227689
v 0.072896 1.605000 -1.407990
v 0.072896 1.175301 -1.387691
v 0.072896 1.584699 -1.387691
v 0.072896 1.155000 -1.407990
v 0.072896 1.605000 -2.227689
v 0.072896 1.155000 -2.227689
v 0.072896 1.155000 -2.227689
v 0.072896 1.605000 -2.227689
v 0.072896 1.155000 -1.407990
v 0.072896 1.605000 -1.407990
v 0.072896 1.175301 -1.387691
v 0.072896 1.584699 -1.387691
v 0.162690 1.155000 -1.407990
v 0.162690 1.584699 -1.387691
v 0.162690 1.175301 -1.387691
v 0.162690 1.605000 -1.407990
v 0.162690 1.155000 -2.227689
v 0.162690 1.605000 -2.227689
v 0.162690 1.605000 -2.227689
v 0.162690 1.155000 -2.227689
v 0.162690 1.605000 -1.407990
v 0.162690 1.155000 -1.407990
v 0.162690 1.584699 -1.387691
v 0.162690 1.175301 -1.387691
vn 0.0000 0.0000 1.0000
vn 0.0000 0.0000 -1.0000
vn 0.0000 0.7664 0.6424
vn 0.0000 -0.7664 -0.6424
vn -1.0000 0.0000 0.0000
vn 1.0000 0.0000 0.0000
vn 0.0000 1.0000 0.0000
vn 0.0000 -1.0000 0.0000
vn 0.0000 -0.7664 0.6424
vn 0.0000 0.7664 -0.6424
vn 0.7071 -0.7071 0.0000
vn -0.7071 0.7071 0.0000
vn 0.8185 -0.4062 -0.4062
vn -0.8185 0.4062 0.4062
vn 0.7071 0.0000 -0.7071
vn -0.7071 0.0000 0.7071
vn 0.8185 0.4062 -0.4062
vn -0.8185 -0.4062 0.4062
vn 0.7071 0.7071 0.0000
vn -0.7071 -0.7071 0.0000
vn -0.8185 0.4062 -0.4062
vn 0.8185 -0.4062 0.4062
vn -0.7071 0.0000 -0.7071
vn 0.7071 0.0000 0.7071
vn -0.8185 -0.4062 -0.4062
vn 0.8185 0.4062 0.4062
usemtl Material.002
s off
f 9//1 10//1 11//1
f 10//1 9//1 12//1
f 13//2 14//2 15//2
f 16//2 15//2 14//2
f 17//3 18//3 19//3
f 18//3 17//3 20//3
f 21//4 22//4 23//4
f 24//4 23//4 22//4
f 25//5 26//5 27//5
f 26//5 25//5 28//5
f 26//5 28//5 29//5
f 29//5 28//5 30//5
f 29//5 30//5 31//5
f 27//5 32//5 33//5
f 32//5 27//5 26//5
f 33//5 32//5 34//5
f 33//5 34//5 35//5
f 35//5 34//5 36//5
f 37//6 38//6 39//6
f 39//6 38//6 40//6
f 38//6 41//6 40//6
f 42//6 43//6 41//6
f 40//6 41//6 43//6
f 44//6 45//6 46//6
f 45//6 47//6 46//6
f 46//6 47//6 42//6
f 47//6 48//6 42//6
f 43//6 42//6 48//6
f 49//7 50//7 51//7
f 52//7 53//7 54//7
f 53//7 52//7 55//7
f 55//7 52//7 51//7
f 55//7 51//7 50//7
f 55//7 50//7 56//7
f 57//8 58//8 59//8
f 58//8 60//8 59//8
f 60//8 61//8 59//8
f 59//8 61//8 62//8
f 63//8 62//8 61//8
f 60//8 58//8 64//8
f 65//5 66//5 67//5
f 66//5 65//5 68//5
f 66//5 68//5 69//5
f 69//5 68//5 70//5
f 70//5 68//5 71//5
f 70//5 71//5 72//5
f 67//5 73//5 74//5
f 73//5 67//5 66//5
f 74//5 73//5 75//5
f 74//5 75//5 76//5
f 74//5 76//5 77//5
f 77//5 76//5 78//5
f 79//6 80//6 81//6
f 81//6 80//6 82//6
f 80//6 83//6 82//6
f 83//6 84//6 82//6
f 85//6 86//6 84//6
f 82//6 84//6 86//6
f 87//6 88//6 89//6
f 88//6 90//6 89//6
f 89//6 90//6 91//6
f 91//6 90//6 85//6
f 90//6 92//6 85//6
f 86//6 85//6 92//6
f 93//1 94//1 95//1
f 94//1 93//1 96//1
f 97//2 98//2 99//2
f 100//2 99//2 98//2
f 101//1 102//1 103//1
f 102//1 101//1 104//1
f 105//2 106//2 107//2
f 108//2 107//2 106//2
f 109//3 110//3 111//3
f 110//3 109//3 112//3
f 113//4 114//4 115//4
f 116//4 115//4 114//4
f 117//1 118//1 119//1
f 118//1 117//1 120//1
f 121//2 122//2 123//2
f 124//2 123//2 122//2
f 125//9 126//9 127//9
f 126//9 125//9 128//9
f 129//10 130//10 131//10
f 132//10 131//10 130//10
f 133//1 134//1 135//1
f 134//1 133//1 136//1
f 137//2 138//2 139//2
f 140//2 139//2 138//2
f 141//8 142//8 143//8
f 142//8 141//8 144//8
f 142//8 144//8 145//8
f 145//8 144//8 146//8
f 146//8 144//8 147//8
f 148//8 145//8 146//8
f 149//7 150//7 151//7
f 152//7 153//7 149//7
f 149//7 153//7 150//7
f 150//7 153//7 154//7
f 153//7 155//7 154//7
f 156//7 154//7 155//7
f 157//1 158//1 159//1
f 158//1 157//1 160//1
f 161//2 162//2 163//2
f 164//2 163//2 162//2
f 165//9 166//9 167//9
f 166//9 165//9 168//9
f 169//10 170//10 171//10
f 172//10 171//10 170//10
f 173//6 174//6 175//6
f 174//6 176//6 177//6
f 176//6 174//6 178//6
f 178//6 174//6 179//6
f 179//6 174//6 180//6
f 180//6 174//6 173//6
f 176//6 181//6 182//6
f 181//6 176//6 178//6
f 182//6 181//6 183//6
f 182//6 183//6 184//6
f 182//6 184//6 185//6
f 185//6 184//6 186//6
f 187//5 188//5 189//5
f 189//5 188//5 190//5
f 188//5 191//5 190//5
f 191//5 192//5 190//5
f 193//5 194//5 192//5
f 190//5 192//5 194//5
f 195//5 196//5 197//5
f 197//5 196//5 198//5
f 198//5 196//5 193//5
f 193//5 196//5 194//5
f 199//5 194//5 196//5
f 200//5 196//5 195//5
f 201//2 202//2 203//2
f 202//2 201//2 204//2
f 205//1 206//1 207//1
f 208//1 207//1 206//1
f 209//6 210//6 211//6
f 212//6 213//6 214//6
f 213//6 212//6 210//6
f 213//6 210//6 215//6
f 215//6 210//6 209//6
f 214//6 216//6 217//6
f 216//6 214//6 213//6
f 217//6 216//6 218//6
f 217//6 218//6 219//6
f 219//6 218//6 220//6
f 221//5 222//5 223//5
f 223//5 222//5 224//5
f 222//5 225//5 224//5
f 226//5 227//5 225//5
f 224//5 225//5 227//5
f 228//5 229//5 230//5
f 230//5 229//5 226//5
f 229//5 231//5 226//5
f 227//5 226//5 231//5
f 232//5 229//5 228//5
f 233//1 234//1 235//1
f 234//1 233//1 236//1
f 237//2 238//2 239//2
f 240//2 239//2 238//2
f 241//2 242//2 243//2
f 242//2 241//2 244//2
f 245//1 246//1 247//1
f 248//1 247//1 246//1
f 249//11 250//11 251//11
f 250//11 249//11 252//11
f 253//12 254//12 255//12
f 256//12 255//12 254//12
f 257//13 258//13 259//13
f 258//13 257//13 260//13
f 261//14 262//14 263//14
f 264//14 263//14 262//14
f 265//15 266//15 267//15
f 266//15 265//15 268//15
f 269//16 270//16 271//16
f 272//16 271//16 270//16
f 273//17 274//17 275//17
f 274//17 273//17 276//17
f 277//18 278//18 279//18
f 280//18 279//18 278//18
f 281//19 282//19 283//19
f 282//19 281//19 284//19
f 285//20 286//20 287//20
f 288//20 287//20 286//20
f 289//1 290//1 291//1
f 290//1 289//1 292//1
f 293//2 294//2 295//2
f 296//2 295//2 294//2
f 297//3 298//3 299//3
f 298//3 297//3 300//3
f 301//4 302//4 303//4
f 304//4 303//4 302//4
f 305//1 306//1 307//1
f 306//1 305//1 308//1
f 309//2 310//2 311//2
f 312//2 311//2 310//2
f 313//9 314//9 315//9
f 314//9 313//9 316//9
f 317//10 318//10 319//10
f 320//10 319//10 318//10
f 321//12 322//12 323//12
f 322//12 321//12 324//12
f 325//11 326//11 327//11
f 328//11 327//11 326//11
f 329//21 330//21 331//21
f 330//21 329//21 332//21
f 333//22 334//22 335//22
f 336//22 335//22 334//22
f 337//23 338//23 339//23
f 338//23 337//23 340//23
f 341//24 342//24 343//24
f 344//24 343//24 342//24
f 345//25 346//25 347//25
f 346//25 345//25 348//25
f 349//26 350//26 351//26
f 352//26 351//26 350//26
f 353//20 354//20 355//20
f 354//20 353//20 356//20
f 357//19 358//19 359//19
f 360//19 359//19 358//19
f 361//2 362//2 363//2
f 362//2 361//2 364//2
f 364//2 361//2 365//2
f 364//2 365//2 366//2
f 366//2 365//2 367//2
f 367//2 365//2 368//2
f 369//1 370//1 371//1
f 371//1 370//1 372//1
f 372//1 370//1 373//1
f 370//1 374//1 373//1
f 373//1 374//1 375//1
f 376//1 375//1 374//1
f 377//5 378//5 379//5
f 378//5 377//5 380//5
f 380//5 377//5 381//5
f 380//5 381//5 382//5
f 383//6 384//6 385//6
f 384//6 386//6 385//6
f 385//6 386//6 387//6
f 388//6 387//6 386//6
f 389//6 390//6 391//6
f 390//6 389//6 392//6
f 392//6 389//6 393//6
f 392//6 393//6 394//6
f 395//5 396//5 397//5
f 396//5 398//5 397//5
f 397//5 398//5 399//5
f 400//5 399//5 398//5
