# Blender v2.79 (sub 0) OBJ File: ''
# www.blender.org
mtllib Lock Light.mtl
o SketchUp_ID3.004
v 0.467500 0.000000 -0.970000
v 0.000000 0.000000 0.000000
v 0.000000 0.000000 -0.400000
v 1.870000 0.000000 0.000000
v 1.402500 0.000000 -0.970000
v 1.870000 0.000000 -0.400000
v 0.467500 0.340000 -0.970000
v 0.000000 0.000000 -0.400000
v 0.000000 0.340000 -0.400000
v 0.467500 0.000000 -0.970000
v 0.467500 0.340000 -0.970000
v 1.402500 0.000000 -0.970000
v 0.467500 0.000000 -0.970000
v 1.402500 0.340000 -0.970000
v 1.402500 0.000000 -0.970000
v 1.870000 0.340000 -0.400000
v 1.870000 0.000000 -0.400000
v 1.402500 0.340000 -0.970000
v 1.870000 0.000000 -0.400000
v 1.870000 0.340000 0.000000
v 1.870000 0.000000 0.000000
v 1.870000 0.340000 -0.400000
v 1.870000 0.340000 0.000000
v 0.000000 0.000000 0.000000
v 1.870000 0.000000 0.000000
v 0.000000 0.340000 0.000000
v 0.000000 0.340000 -0.400000
v 0.000000 0.000000 0.000000
v 0.000000 0.340000 0.000000
v 0.000000 0.000000 -0.400000
v 1.870000 0.340000 0.000000
v 0.000000 0.340000 -0.400000
v 0.000000 0.340000 0.000000
v 0.467500 0.340000 -0.970000
v 1.402500 0.340000 -0.970000
v 1.870000 0.340000 -0.400000
vn 0.0000 -1.0000 0.0000
vn -0.7732 0.0000 -0.6342
vn 0.0000 0.0000 -1.0000
vn 0.7732 0.0000 -0.6342
vn 1.0000 0.0000 0.0000
vn 0.0000 0.0000 1.0000
vn -1.0000 0.0000 0.0000
vn 0.0000 1.0000 0.0000
usemtl material.001
s off
f 1//1 2//1 3//1
f 2//1 1//1 4//1
f 4//1 1//1 5//1
f 4//1 5//1 6//1
f 7//2 8//2 9//2
f 8//2 7//2 10//2
f 11//3 12//3 13//3
f 12//3 11//3 14//3
f 15//4 16//4 17//4
f 16//4 15//4 18//4
f 19//5 20//5 21//5
f 20//5 19//5 22//5
f 23//6 24//6 25//6
f 24//6 23//6 26//6
f 27//7 28//7 29//7
f 28//7 27//7 30//7
f 31//8 32//8 33//8
f 32//8 31//8 34//8
f 34//8 31//8 35//8
f 35//8 31//8 36//8
